<svg width="50" height="50" viewBox="0 0 50 50" fill="none" xmlns="http://www.w3.org/2000/svg">
<circle cx="25" cy="25" r="25" fill="#FFDCDD"/>
<path d="M17.85 15C18.712 15 19.5386 15.3292 20.1481 15.9153C20.7576 16.5013 21.1 17.2962 21.1 18.125C21.1 18.9538 20.7576 19.7487 20.1481 20.3347C19.5386 20.9208 18.712 21.25 17.85 21.25C16.988 21.25 16.1614 20.9208 15.5519 20.3347C14.9424 19.7487 14.6 18.9538 14.6 18.125C14.6 17.2962 14.9424 16.5013 15.5519 15.9153C16.1614 15.3292 16.988 15 17.85 15ZM32.8 15C33.662 15 34.4886 15.3292 35.0981 15.9153C35.7076 16.5013 36.05 17.2962 36.05 18.125C36.05 18.9538 35.7076 19.7487 35.0981 20.3347C34.4886 20.9208 33.662 21.25 32.8 21.25C31.938 21.25 31.1114 20.9208 30.5019 20.3347C29.8924 19.7487 29.55 18.9538 29.55 18.125C29.55 17.2962 29.8924 16.5013 30.5019 15.9153C31.1114 15.3292 31.938 15 32.8 15ZM12 26.668C12 24.3672 13.9419 22.5 16.3347 22.5H18.0694C18.7153 22.5 19.3287 22.6367 19.8812 22.8789C19.8284 23.1602 19.8041 23.4531 19.8041 23.75C19.8041 25.2422 20.4866 26.582 21.5631 27.5H12.8653C12.39 27.5 12 27.125 12 26.668ZM28.4653 27.5H28.4369C29.5175 26.582 30.1959 25.2422 30.1959 23.75C30.1959 23.4531 30.1675 23.1641 30.1188 22.8789C30.6713 22.6328 31.2847 22.5 31.9306 22.5H33.6653C36.0581 22.5 38 24.3672 38 26.668C38 27.1289 37.61 27.5 37.1347 27.5H28.4653ZM21.1 23.75C21.1 22.7554 21.5109 21.8016 22.2423 21.0984C22.9737 20.3951 23.9657 20 25 20C26.0343 20 27.0263 20.3951 27.7577 21.0984C28.4891 21.8016 28.9 22.7554 28.9 23.75C28.9 24.7446 28.4891 25.6984 27.7577 26.4017C27.0263 27.1049 26.0343 27.5 25 27.5C23.9657 27.5 22.9737 27.1049 22.2423 26.4017C21.5109 25.6984 21.1 24.7446 21.1 23.75ZM17.2 33.957C17.2 31.082 19.6253 28.75 22.6153 28.75H27.3847C30.3747 28.75 32.8 31.082 32.8 33.957C32.8 34.5312 32.3166 35 31.7153 35H18.2847C17.6875 35 17.2 34.5352 17.2 33.957Z" fill="#EB3137"/>
</svg>
