<svg width="39" height="39" viewBox="0 0 39 39" fill="none" xmlns="http://www.w3.org/2000/svg">
<g id="game-icons:archery-target">
<path id="Vector" d="M17.2199 1.84488L16.4748 4.32991C17.4644 4.1279 18.4875 4.02278 19.5361 4.02278C20.334 4.02278 21.1179 4.08525 21.883 4.20377L21.1666 1.84473L17.2199 1.84488ZM19.536 5.56534C11.9472 5.56534 5.81055 11.6995 5.81055 19.2882C5.81055 26.8767 11.9472 33.0109 19.536 33.0109C27.1245 33.0109 33.2587 26.8768 33.2587 19.2881C33.2587 11.6993 27.1247 5.56534 19.536 5.56534ZM19.536 8.74072C25.3617 8.74072 30.0832 13.4622 30.0832 19.2882C30.0832 25.114 25.3617 29.838 19.5359 29.838C13.7099 29.838 8.98608 25.114 8.98608 19.2882C8.98608 13.4622 13.71 8.74072 19.536 8.74072ZM19.5334 11.7067C15.347 11.7067 11.9521 15.0994 11.9521 19.2858C11.9521 23.4722 15.347 26.8649 19.5334 26.8649C23.7199 26.8649 27.1125 23.4722 27.1125 19.2858C27.1125 15.0994 23.7199 11.7067 19.5334 11.7067ZM19.5359 14.7297C22.0535 14.7297 24.0942 16.7704 24.0942 19.2882C24.0942 21.8058 22.0535 23.8465 19.5358 23.8465C17.0179 23.8465 14.9773 21.8059 14.9773 19.2881C14.9773 16.7702 17.0181 14.7297 19.5359 14.7297ZM19.5359 17.0839C18.3177 17.0839 17.3292 18.0701 17.3292 19.2883C17.3292 20.5063 18.3177 21.4949 19.5359 21.4949C20.7539 21.4949 21.74 20.5064 21.74 19.2882C21.74 18.0702 20.754 17.0839 19.5359 17.0839ZM8.75276 30.0879L6.63183 37.1623H10.2025L11.7472 32.4158C10.6568 31.7665 9.65096 30.9845 8.75276 30.0879ZM29.8667 30.5211C28.95 31.3642 27.934 32.0923 26.8411 32.6896L28.3075 37.1624H31.8804L29.8667 30.5211ZM17.296 34.3892V37.1623H21.264V34.456C20.6902 34.5208 20.1133 34.5534 19.5359 34.5535C18.7749 34.5535 18.0271 34.497 17.296 34.3892Z" fill="#EB3137"/>
</g>
</svg>
