<svg width="35" height="35" viewBox="0 0 35 35" fill="none" xmlns="http://www.w3.org/2000/svg">
<g id="ion:search">
<path id="Vector" d="M31.2713 28.858L24.8394 22.4261C26.3879 20.3646 27.2238 17.8554 27.221 15.2771C27.221 8.69132 21.863 3.33331 15.2772 3.33331C8.6915 3.33331 3.3335 8.69132 3.3335 15.2771C3.3335 21.8628 8.6915 27.2208 15.2772 27.2208C17.8555 27.2236 20.3648 26.3877 22.4263 24.8392L28.8582 31.2711C29.1838 31.5622 29.6084 31.7175 30.045 31.7053C30.4815 31.6931 30.8968 31.5142 31.2056 31.2054C31.5144 30.8966 31.6933 30.4813 31.7055 30.0448C31.7177 29.6083 31.5623 29.1836 31.2713 28.858ZM6.746 15.2771C6.746 13.5897 7.24635 11.9403 8.18377 10.5374C9.1212 9.1344 10.4536 8.04093 12.0125 7.39522C13.5714 6.74951 15.2867 6.58056 16.9416 6.90974C18.5965 7.23892 20.1166 8.05144 21.3098 9.24456C22.5029 10.4377 23.3154 11.9578 23.6446 13.6127C23.9738 15.2676 23.8048 16.9829 23.1591 18.5418C22.5134 20.1007 21.4199 21.4331 20.017 22.3705C18.614 23.308 16.9646 23.8083 15.2772 23.8083C13.0155 23.8056 10.8471 22.9059 9.24774 21.3066C7.64841 19.7072 6.74871 17.5389 6.746 15.2771Z" fill="#EB3137"/>
</g>
</svg>
